<?xml version="1.0" encoding="UTF-8"?>
<svg width="512" height="512" viewBox="0 0 512 512" fill="none" xmlns="http://www.w3.org/2000/svg">
  <!-- Fondo circular con gradiente -->
  <defs>
    <linearGradient id="grad1" x1="0%" y1="0%" x2="100%" y2="100%">
      <stop offset="0%" style="stop-color:#4a90e2;stop-opacity:1" />
      <stop offset="100%" style="stop-color:#357abd;stop-opacity:1" />
    </linearGradient>
  </defs>
  
  <circle cx="256" cy="256" r="256" fill="url(#grad1)"/>
  
  <!-- Silueta de un vestido estilizado con sombra -->
  <path d="M256 120
           C 256 120, 350 180, 350 280
           C 350 380, 256 420, 256 420
           C 256 420, 162 380, 162 280
           C 162 180, 256 120, 256 120
           Z" 
        fill="white"
        filter="drop-shadow(0px 4px 6px rgba(0, 0, 0, 0.1))"/>
  
  <!-- Detalles decorativos con brillo -->
  <path d="M256 160
           C 256 160, 310 200, 310 280
           C 310 360, 256 390, 256 390
           C 256 390, 202 360, 202 280
           C 202 200, 256 160, 256 160
           Z" 
        fill="#2d3748"
        opacity="0.9"/>
  
  <!-- Inicial "I" estilizada con efecto 3D -->
  <path d="M246 80 H266 V100 H246 Z" fill="white" filter="drop-shadow(0px 2px 2px rgba(0, 0, 0, 0.1))"/>
  <path d="M236 420 H276 V440 H236 Z" fill="white" filter="drop-shadow(0px 2px 2px rgba(0, 0, 0, 0.1))"/>
  
  <!-- Brillo superior -->
  <circle cx="236" cy="236" r="5" fill="white" opacity="0.5"/>
</svg> 